<svg width="80" height="81" viewBox="0 0 80 81" fill="none" xmlns="http://www.w3.org/2000/svg">
<circle cx="40" cy="40.4105" r="40" fill="#E9F2FF"/>
<path d="M43.5937 42.687C43.5937 41.9889 44.0124 41.3787 44.5043 41.3787C44.9959 41.3787 45.4149 41.9857 45.4149 42.687C45.4149 43.3882 44.9961 43.9952 44.5043 43.9952C44.0125 43.9952 43.5937 43.385 43.5937 42.687ZM36.1059 39.4424C36.5825 39.4424 37.0165 38.8354 37.0165 38.1342C37.0165 37.4329 36.5978 36.8259 36.1059 36.8259C35.6143 36.8259 35.1953 37.4329 35.1953 38.1342C35.1953 38.8354 35.6293 39.4424 36.1059 39.4424ZM26.6393 38.9779L27.1888 38.4954C27.4828 38.2373 27.6884 37.8933 27.7761 37.5119C27.8639 37.1306 27.8292 36.7313 27.6774 36.3707L27.3952 35.6939C27.1892 35.2014 27.204 34.6444 27.4363 34.164C27.6685 33.6834 28.0956 33.3253 28.6092 33.1807L29.3164 32.9834C29.6877 32.878 30.017 32.6597 30.259 32.359C30.501 32.0584 30.6434 31.69 30.6671 31.3049L30.7065 30.5734C30.7321 30.0977 30.939 29.6499 31.2843 29.3219C31.6298 28.994 32.0878 28.8108 32.5641 28.81C32.6751 28.8104 32.7858 28.8204 32.8948 28.8403L33.6172 28.9707V28.9709C34.0013 29.0393 34.3968 28.9855 34.7486 28.8174C35.1003 28.6491 35.3904 28.3747 35.5782 28.033L35.9271 27.3773C36.1845 26.9072 36.6321 26.571 37.1555 26.4548C37.6786 26.3385 38.2266 26.4535 38.6589 26.7702L39.2659 27.1981C39.5826 27.4255 39.9626 27.5477 40.3524 27.5477C40.7422 27.5477 41.1222 27.4255 41.439 27.1981L42.0459 26.7732H42.0462C42.4814 26.4592 43.0311 26.3481 43.5542 26.4683C44.0774 26.5886 44.5235 26.9288 44.7777 27.4016L45.1269 28.045C45.2865 28.3406 45.5232 28.5874 45.8118 28.7594C46.1001 28.9315 46.4298 29.0223 46.7658 29.0223C46.8676 29.0217 46.9691 29.0126 47.0694 28.995L47.7645 28.8766C47.8706 28.8584 47.9783 28.8493 48.0861 28.8493C48.5644 28.8504 49.024 29.0352 49.37 29.3659C49.7157 29.6964 49.9211 30.1472 49.9437 30.625L49.9772 31.3565C49.9958 31.7458 50.1362 32.1195 50.3784 32.425C50.6208 32.7305 50.9528 32.9522 51.3278 33.0591L52.0319 33.2594C52.5473 33.4038 52.9756 33.7629 53.2078 34.245C53.4403 34.7271 53.454 35.2858 53.2459 35.7787L52.9605 36.4526H52.9607C52.8077 36.8123 52.7717 37.211 52.8578 37.5923C52.9438 37.9736 53.1477 38.3181 53.4403 38.5772L53.9865 39.0629C54.3866 39.4166 54.6157 39.925 54.6157 40.459C54.6157 40.9931 54.3866 41.5014 53.9865 41.8553L53.4371 42.3378H53.4373C53.143 42.5958 52.9374 42.9399 52.8497 43.3212C52.7621 43.7025 52.7966 44.1018 52.9484 44.4626L53.2306 45.1395L53.2308 45.1393C53.4368 45.6317 53.4218 46.1887 53.1896 46.6693C52.9575 47.1499 52.5305 47.5077 52.0166 47.6526L51.3095 47.8499C50.9345 47.9492 50.5998 48.1632 50.3523 48.462C50.1048 48.7607 49.9566 49.1291 49.9284 49.5161L49.8891 50.2476C49.8634 50.7233 49.6566 51.1711 49.3113 51.4991C48.9657 51.827 48.5078 52.0102 48.0315 52.011C47.9205 52.0106 47.8098 52.0006 47.7007 51.9807L46.9752 51.8653C46.5913 51.7965 46.1954 51.8499 45.8437 52.0182C45.4919 52.1865 45.2018 52.4611 45.0144 52.8032L44.6685 53.4437C44.411 53.9137 43.9634 54.2499 43.4401 54.3662C42.9169 54.4824 42.369 54.3674 41.9367 54.0507L41.3297 53.6228C41.013 53.3954 40.633 53.2733 40.2432 53.2733C39.8534 53.2733 39.4733 53.3954 39.1566 53.6228L38.5496 54.0477H38.5494C38.1145 54.3628 37.5645 54.4746 37.0409 54.3541C36.5173 54.2338 36.0714 53.893 35.8178 53.4193L35.4687 52.7759C35.2832 52.433 34.9949 52.1569 34.6443 51.9865C34.2937 51.8161 33.8984 51.7599 33.5141 51.826L32.8311 51.9443C32.725 51.9625 32.6172 51.9716 32.5095 51.9716C32.0312 51.9706 31.5715 51.7858 31.2256 51.4551C30.8798 51.1246 30.6745 50.6738 30.6518 50.196L30.6154 49.4645C30.5968 49.0752 30.4564 48.7015 30.214 48.3959C29.9718 48.0904 29.6398 47.8688 29.2648 47.7619L28.5607 47.5616C28.0453 47.4172 27.617 47.0581 27.3846 46.576C27.1523 46.0939 27.1383 45.5352 27.3465 45.0423L27.6319 44.3684C27.7847 44.0087 27.8207 43.61 27.7347 43.2287C27.6486 42.8474 27.4449 42.5029 27.1523 42.2438L26.6061 41.7581H26.6059C26.2142 41.3999 25.9938 40.8913 26.0001 40.3606C26.0065 39.8296 26.2389 39.3267 26.6393 38.9778L26.6393 38.9779ZM41.6603 42.687C41.6603 44.4747 42.929 45.9316 44.4891 45.9316C46.0492 45.9316 47.3179 44.4777 47.3179 42.687C47.3179 40.8963 46.0643 39.4424 44.4891 39.4424C42.9139 39.4424 41.6603 40.8993 41.6603 42.687ZM36.6553 44.9422C36.4929 45.1666 36.4343 45.4499 36.4946 45.7203C36.5547 45.9906 36.7279 46.2225 36.9703 46.3567C37.2125 46.4909 37.5009 46.515 37.7621 46.4227C38.0234 46.3304 38.2326 46.1306 38.3368 45.874L43.94 35.8789C44.1024 35.6545 44.161 35.3712 44.1007 35.1009C44.0405 34.8305 43.8674 34.5987 43.6249 34.4645C43.3827 34.3302 43.0944 34.3061 42.8331 34.3984C42.5719 34.4907 42.3627 34.6906 42.2585 34.9472L36.6553 44.9422ZM33.2739 38.1341C33.2739 39.9219 34.5425 41.3787 36.1027 41.3787C37.6628 41.3787 38.9314 39.9249 38.9314 38.1341C38.9314 36.3434 37.6628 34.8896 36.1027 34.8896C34.5427 34.8896 33.2739 36.3464 33.2739 38.1341Z" fill="#0068FF"/>
</svg>
