<svg width="80" height="81" viewBox="0 0 80 81" fill="none" xmlns="http://www.w3.org/2000/svg">
<circle cx="40" cy="40.4105" r="40" fill="#E9F2FF"/>
<path d="M39.8313 40.5449C41.6826 40.5449 43.2841 39.88 44.5922 38.5719C45.9002 37.2638 46.5652 35.6592 46.5652 33.811C46.5652 31.9598 45.9002 30.3582 44.5922 29.0502C43.2841 27.7421 41.6795 27.0771 39.8313 27.0771C37.98 27.0771 36.3785 27.7421 35.0704 29.0502C33.7624 30.3582 33.0974 31.9629 33.0974 33.811C33.0974 35.6623 33.7624 37.2638 35.0704 38.5719C36.3816 39.88 37.9832 40.5449 39.8313 40.5449Z" fill="#0068FF"/>
<path d="M51.6162 48.5775C51.5788 48.0312 51.5007 47.438 51.3883 46.8105C51.2759 46.1768 51.1292 45.5805 50.9544 45.0342C50.7733 44.4691 50.5267 43.9103 50.2239 43.3765C49.9086 42.8208 49.5371 42.34 49.1219 41.9404C48.6879 41.5252 48.1541 41.1912 47.5391 40.9477C46.9272 40.7041 46.2466 40.5824 45.5192 40.5824C45.2351 40.5824 44.9573 40.701 44.4234 41.0476C44.0956 41.263 43.7116 41.5096 43.2839 41.7812C42.9187 42.0153 42.4223 42.2339 41.8073 42.4305C41.2079 42.6241 40.6022 42.7209 40.0028 42.7209C39.4034 42.7209 38.7978 42.6241 38.1984 42.4305C37.5865 42.2339 37.0901 42.0153 36.7249 41.7812C36.3003 41.5096 35.9163 41.263 35.5823 41.0444C35.0484 40.6979 34.7737 40.5793 34.4865 40.5793C33.7591 40.5793 33.0816 40.701 32.4666 40.9445C31.8516 41.188 31.3209 41.5221 30.8838 41.9373C30.4686 42.3338 30.0971 42.8177 29.7818 43.3734C29.479 43.9072 29.2324 44.466 29.0513 45.0311C28.8765 45.5774 28.7297 46.1737 28.6173 46.8074C28.505 47.4349 28.43 48.0281 28.3894 48.5744C28.352 49.1082 28.3333 49.6639 28.3333 50.2259C28.3333 51.6869 28.7984 52.867 29.7131 53.738C30.6153 54.5965 31.8141 55.0336 33.2658 55.0336H46.7305C48.1853 55.0336 49.381 54.5965 50.2832 53.738C51.1979 52.867 51.6631 51.6838 51.6631 50.2259C51.6755 49.6671 51.6537 49.1114 51.6162 48.5775Z" fill="#0068FF"/>
</svg>
