<svg width="80" height="81" viewBox="0 0 80 81" fill="none" xmlns="http://www.w3.org/2000/svg">
<circle cx="40" cy="40.4105" r="40" fill="#E9F2FF"/>
<path d="M54.7726 43.116C54.7707 43.1305 54.7677 43.1449 54.764 43.1589C54.7657 43.2049 54.7629 43.251 54.7554 43.2963C54.7467 43.3306 54.7467 43.3736 54.7381 43.4081C54.7209 43.451 54.7124 43.4853 54.6952 43.5198H54.6954C54.6863 43.5588 54.6719 43.5964 54.6523 43.6313L54.6007 43.7344C54.5835 43.7687 54.5578 43.8032 54.5406 43.8375C54.5149 43.8718 54.489 43.8977 54.4633 43.932L54.3775 44.0178C54.3529 44.0454 54.3238 44.0685 54.2917 44.0866L54.1886 44.1638C54.1581 44.1828 54.1264 44.2001 54.0941 44.2154L53.9653 44.2669C53.9558 44.276 53.9438 44.282 53.9308 44.2842C53.9177 44.2911 53.9028 44.2941 53.8879 44.2926C53.7772 44.3308 53.6614 44.351 53.5443 44.3528H40.386H40.3862C40.3256 44.3512 40.2654 44.3456 40.2057 44.3357H40.1884V44.3271H40.1886C39.9758 44.2932 39.7756 44.2039 39.6082 44.0683C39.4409 43.9326 39.3123 43.7553 39.2353 43.5541C39.2267 43.5368 39.2267 43.5284 39.218 43.5112L38.2046 40.4879H32.8107L36.9162 52.7788V52.7786C37.0196 53.0894 36.9952 53.4286 36.8487 53.7218C36.7023 54.0149 36.4454 54.2379 36.1346 54.3417C36.0073 54.3854 35.8738 54.4085 35.7394 54.4105C35.48 54.4102 35.227 54.3279 35.0171 54.1751C34.8073 54.0222 34.6513 53.807 34.5713 53.5602L26.0936 28.1199L26.0679 28.034C26.0593 28.0168 26.0593 27.9997 26.0507 27.9825V27.9822C26.0379 27.9374 26.0293 27.8912 26.025 27.8449C25.989 27.6861 25.992 27.5211 26.0334 27.3639C26.0483 27.2994 26.0686 27.2362 26.0936 27.1749C26.0944 27.1685 26.0975 27.1624 26.1022 27.1577C26.1216 27.0919 26.1535 27.0306 26.1967 26.9774C26.2424 26.8948 26.3036 26.8219 26.377 26.7626C26.4195 26.7155 26.4686 26.675 26.523 26.6424C26.5735 26.6021 26.6282 26.5674 26.6863 26.5393C26.7262 26.5173 26.77 26.5029 26.815 26.4964C26.8245 26.4873 26.8366 26.4813 26.8495 26.4791C26.8582 26.4705 26.8838 26.4705 26.9011 26.4619L26.9009 26.4621C26.9429 26.4494 26.9861 26.4408 27.0298 26.4362C27.0971 26.4192 27.1664 26.4106 27.236 26.4106H41.1591H41.1589C41.2516 26.4093 41.3441 26.4207 41.4337 26.4449C41.4986 26.4584 41.562 26.4785 41.6228 26.505C41.6293 26.5059 41.6353 26.5089 41.6398 26.5134C41.7063 26.5309 41.768 26.5633 41.8202 26.6079C41.9054 26.6534 41.9813 26.7147 42.0436 26.7884C42.0865 26.8314 42.1295 26.8829 42.1724 26.9344C42.198 26.986 42.2325 27.0462 42.2582 27.0977V27.0975C42.2828 27.1372 42.3003 27.1808 42.3098 27.2265C42.3188 27.236 42.3249 27.2478 42.327 27.2608L43.3405 30.284H49.688C49.754 30.2851 49.82 30.2909 49.8856 30.3013C49.8942 30.3099 49.9028 30.3013 49.9113 30.3099H49.9285C49.9958 30.3248 50.0618 30.3448 50.1261 30.3701C50.1328 30.3765 50.1422 30.3798 50.1517 30.3785L50.1604 30.3871C50.3547 30.4706 50.5236 30.6039 50.65 30.7736C50.6666 30.7887 50.681 30.806 50.6929 30.8252C50.7015 30.8338 50.7015 30.8508 50.7101 30.8595H50.7099C50.7647 30.9421 50.8081 31.0316 50.8389 31.1258L54.7126 42.7298C54.7126 42.7471 54.7212 42.7728 54.7212 42.79L54.721 42.7898C54.7365 42.8316 54.748 42.8748 54.7555 42.9188C54.7555 42.9617 54.7641 43.0046 54.7641 43.0475C54.7641 43.0734 54.7728 43.0991 54.7728 43.1163L54.7726 43.116Z" fill="#0068FF"/>
</svg>
