<svg width="151" height="32" viewBox="0 0 151 32" fill="none" xmlns="http://www.w3.org/2000/svg">
<path fill-rule="evenodd" clip-rule="evenodd" d="M46.941 9.2995V7.61556H52.0027V31.2981H49.1068C47.9148 31.2981 46.9475 30.3383 46.941 29.1523C46.9403 29.153 46.9396 29.153 46.9389 29.1537C44.9003 30.6395 42.3803 31.5222 39.6586 31.5222C32.8417 31.5222 27.3145 26.0164 27.3145 19.2259C27.3145 12.4354 32.8417 6.93031 39.6586 6.93031C42.3803 6.93031 44.9003 7.81227 46.9389 9.29806C46.9396 9.29878 46.9403 9.29878 46.941 9.2995ZM26.0032 0V0.767392C26.0032 2.19986 25.8109 3.3686 24.8776 4.74054L24.7649 4.8688C24.561 5.09938 24.0824 5.64051 23.8547 5.93378L7.607 26.2614H26.0032V29.1393C26.0032 30.3318 25.0323 31.2981 23.8359 31.2981H0V29.9413C0 28.2789 0.414218 27.5382 0.937592 26.7658L18.2588 5.39624H0.72217V0H26.0032ZM58.1415 31.2981C57.1461 31.2981 56.3365 30.4918 56.3365 29.501V0H61.7538V31.2981H58.1415ZM77.7724 6.78187C84.6363 6.78187 90.1997 12.3287 90.1997 19.1603C90.1997 25.9984 84.6363 31.5452 77.7724 31.5452C70.9078 31.5452 65.3452 25.9984 65.3452 19.1603C65.3452 12.3287 70.9078 6.78187 77.7724 6.78187ZM39.6586 26.4603C43.6699 26.4603 46.9208 23.2221 46.9208 19.2259C46.9208 15.2362 43.6699 11.9973 39.6586 11.9973C35.6473 11.9973 32.3957 15.2362 32.3957 19.2259C32.3957 23.2221 35.6473 26.4603 39.6586 26.4603ZM77.7724 26.448C81.8076 26.448 85.0823 23.1861 85.0823 19.1603C85.0823 15.141 81.8076 11.8791 77.7724 11.8791C73.7307 11.8791 70.4618 15.141 70.4618 19.1603C70.4618 23.1861 73.7307 26.448 77.7724 26.448Z" fill="#0068FF"/>
<path d="M96.2596 3.83898C95.2246 4.87406 94.707 6.14573 94.707 7.6392C94.707 9.11788 95.2246 10.3895 96.2596 11.4394C97.2947 12.4893 98.5664 13.0068 100.06 13.0068C101.553 13.0068 102.825 12.4893 103.86 11.4394C104.91 10.3895 105.427 9.13267 105.427 7.6392C105.427 6.14573 104.91 4.87406 103.86 3.83898C102.825 2.78912 101.553 2.27158 100.06 2.27158C98.5664 2.27158 97.2947 2.78912 96.2596 3.83898ZM102.899 4.77055C103.668 5.53947 104.052 6.50061 104.052 7.6392C104.052 8.76299 103.668 9.72414 102.899 10.5078C102.145 11.2768 101.198 11.6612 100.06 11.6612C98.9213 11.6612 97.9749 11.2768 97.206 10.5078C96.4519 9.72414 96.0674 8.76299 96.0674 7.6392C96.0674 6.50061 96.4519 5.55425 97.206 4.77055C97.9749 3.98685 98.9213 3.60239 100.06 3.60239C101.198 3.60239 102.145 3.98685 102.899 4.77055Z" fill="#0068FF"/>
<path d="M112.833 5.42117V5.0515C112.833 4.44524 112.981 4.00164 113.291 3.73547C113.602 3.4841 114.09 3.3658 114.77 3.3658C115.169 3.3658 115.687 3.41016 116.293 3.4841V2.31594C115.716 2.18286 115.213 2.12371 114.77 2.12371C112.626 2.12371 111.546 3.09964 111.546 5.0515V5.42117H108.796V5.19937C108.796 3.97206 109.447 3.41016 110.748 3.51367V2.27158C109.713 2.19764 108.914 2.41945 108.352 2.93699C107.79 3.43974 107.51 4.19387 107.51 5.19937V5.42117H106.327V6.66327H107.51V12.8146H108.796V6.66327H111.546V12.8146H112.833V6.66327H115.568V12.8146H116.855V5.42117H112.833Z" fill="#0068FF"/>
<path d="M119.498 11.8978C120.237 12.6371 121.169 13.0068 122.278 13.0068C122.988 13.0068 123.638 12.8294 124.245 12.4893C124.821 12.1492 125.28 11.676 125.605 11.0845L124.511 10.4487C124.052 11.3063 123.313 11.7351 122.278 11.7351C121.539 11.7351 120.918 11.4838 120.415 10.981C119.927 10.4635 119.676 9.84243 119.676 9.11788C119.676 8.37854 119.927 7.75749 120.415 7.23995C120.918 6.7372 121.539 6.48582 122.278 6.48582C122.766 6.48582 123.21 6.60412 123.609 6.84071C123.993 7.0773 124.274 7.38782 124.466 7.78707L125.546 7.16602C125.265 6.57454 124.821 6.10137 124.245 5.74648C123.668 5.40639 123.003 5.22894 122.278 5.22894C121.169 5.22894 120.237 5.59861 119.498 6.35274C118.759 7.09208 118.389 8.00887 118.389 9.11788C118.389 10.2121 118.759 11.1437 119.498 11.8978Z" fill="#0068FF"/>
<path d="M126.905 3.8242C127.067 3.98685 127.274 4.07557 127.526 4.07557C127.762 4.07557 127.969 3.98685 128.132 3.8242C128.295 3.66154 128.383 3.45452 128.383 3.21794C128.383 2.98135 128.295 2.77433 128.132 2.59689C127.969 2.43423 127.762 2.34551 127.526 2.34551C127.274 2.34551 127.067 2.43423 126.905 2.59689C126.742 2.77433 126.653 2.98135 126.653 3.21794C126.653 3.45452 126.742 3.66154 126.905 3.8242ZM128.162 12.8146V5.42117H126.875V12.8146H128.162Z" fill="#0068FF"/>
<path d="M136.246 6.69284C135.61 5.71691 134.679 5.22894 133.451 5.22894C132.416 5.22894 131.529 5.6134 130.804 6.36753C130.08 7.12166 129.71 8.03844 129.71 9.11788C129.71 10.1973 130.08 11.1289 130.804 11.883C131.529 12.6371 132.401 13.0068 133.451 13.0068C134.679 13.0068 135.61 12.5188 136.246 11.5429V12.8146H137.532V5.42117H136.246V6.69284ZM135.492 11.0106C134.989 11.5133 134.368 11.7647 133.614 11.7647C132.875 11.7647 132.254 11.5133 131.751 11.0106C131.248 10.4931 130.997 9.85722 130.997 9.11788C130.997 8.36375 131.248 7.7427 131.751 7.23995C132.254 6.72241 132.875 6.47104 133.614 6.47104C134.368 6.47104 134.989 6.72241 135.492 7.23995C135.995 7.7427 136.246 8.36375 136.246 9.11788C136.246 9.85722 135.995 10.4931 135.492 11.0106Z" fill="#0068FF"/>
<path d="M140.768 12.8146V2.0202H139.482V12.8146H140.768Z" fill="#0068FF"/>
<path d="M103.535 30.5588L99.6754 20.208H98.1228L94.2634 30.5588H95.7273L96.5702 28.2372H101.228L102.071 30.5588H103.535ZM98.8917 21.8493L100.755 26.9508H97.0434L98.8917 21.8493Z" fill="#0068FF"/>
<path d="M105.144 29.642C105.884 30.3813 106.815 30.751 107.924 30.751C108.634 30.751 109.285 30.5736 109.891 30.2335C110.468 29.8934 110.926 29.4202 111.251 28.8287L110.157 28.1929C109.699 29.0505 108.959 29.4793 107.924 29.4793C107.185 29.4793 106.564 29.228 106.061 28.7252C105.573 28.2077 105.322 27.5866 105.322 26.8621C105.322 26.1227 105.573 25.5017 106.061 24.9841C106.564 24.4814 107.185 24.23 107.924 24.23C108.412 24.23 108.856 24.3483 109.255 24.5849C109.64 24.8215 109.921 25.132 110.113 25.5313L111.192 24.9102C110.911 24.3187 110.468 23.8456 109.891 23.4907C109.314 23.1506 108.649 22.9731 107.924 22.9731C106.815 22.9731 105.884 23.3428 105.144 24.0969C104.405 24.8363 104.035 25.7531 104.035 26.8621C104.035 27.9563 104.405 28.8879 105.144 29.642Z" fill="#0068FF"/>
<path d="M113.115 29.642C113.855 30.3813 114.786 30.751 115.895 30.751C116.605 30.751 117.256 30.5736 117.862 30.2335C118.439 29.8934 118.897 29.4202 119.222 28.8287L118.128 28.1929C117.67 29.0505 116.93 29.4793 115.895 29.4793C115.156 29.4793 114.535 29.228 114.032 28.7252C113.544 28.2077 113.293 27.5866 113.293 26.8621C113.293 26.1227 113.544 25.5017 114.032 24.9841C114.535 24.4814 115.156 24.23 115.895 24.23C116.383 24.23 116.827 24.3483 117.226 24.5849C117.611 24.8215 117.892 25.132 118.084 25.5313L119.163 24.9102C118.882 24.3187 118.439 23.8456 117.862 23.4907C117.285 23.1506 116.62 22.9731 115.895 22.9731C114.786 22.9731 113.855 23.3428 113.115 24.0969C112.376 24.8363 112.006 25.7531 112.006 26.8621C112.006 27.9563 112.376 28.8879 113.115 29.642Z" fill="#0068FF"/>
<path d="M123.866 30.751C124.961 30.751 125.877 30.3813 126.632 29.6272C127.386 28.8731 127.77 27.9415 127.77 26.8621C127.77 25.7826 127.386 24.8511 126.632 24.0969C125.877 23.3428 124.961 22.9731 123.866 22.9731C122.772 22.9731 121.855 23.3428 121.101 24.0969C120.347 24.8511 119.977 25.7678 119.977 26.8621C119.977 27.9563 120.347 28.8731 121.101 29.6272C121.855 30.3813 122.772 30.751 123.866 30.751ZM125.73 28.74C125.227 29.2428 124.606 29.4941 123.866 29.4941C123.142 29.4941 122.521 29.2428 122.018 28.74C121.515 28.2372 121.264 27.6162 121.264 26.8621C121.264 26.1079 121.515 25.4869 122.018 24.9841C122.521 24.4814 123.142 24.23 123.866 24.23C124.606 24.23 125.227 24.4814 125.73 24.9841C126.232 25.4869 126.484 26.1079 126.484 26.8621C126.484 27.6162 126.232 28.2372 125.73 28.74Z" fill="#0068FF"/>
<path d="M134.388 27.0839C134.388 27.8971 134.196 28.5034 133.797 28.9174C133.427 29.3167 132.909 29.5237 132.244 29.5237C131.667 29.5237 131.224 29.361 130.898 29.0209C130.573 28.6808 130.411 28.2225 130.411 27.631V23.1654H129.124V27.7049C129.124 28.6365 129.39 29.3906 129.908 29.9377C130.425 30.4848 131.12 30.751 131.993 30.751C133.072 30.751 133.871 30.337 134.388 29.4941V30.5588H135.675V23.1654H134.388V27.0839Z" fill="#0068FF"/>
<path d="M143.4 23.7864C142.883 23.2393 142.188 22.9731 141.315 22.9731C140.236 22.9731 139.437 23.3872 138.92 24.23V23.1654H137.633V30.5588H138.92V26.6403C138.92 25.827 139.112 25.2207 139.511 24.7919C139.881 24.3927 140.398 24.2004 141.064 24.2004C141.64 24.2004 142.084 24.3631 142.409 24.7032C142.735 25.0433 142.897 25.5017 142.897 26.0932V30.5588H144.184V26.0192C144.184 25.0877 143.918 24.3335 143.4 23.7864Z" fill="#0068FF"/>
<path d="M150.002 23.1654H148.035V21.0952L146.749 21.4797V23.1654H145.285V24.4075H146.749V28.4147C146.749 29.3167 147.015 29.9377 147.532 30.2778C148.05 30.6179 148.863 30.7066 150.002 30.5588V29.4054C149.218 29.4498 148.715 29.435 148.523 29.361C148.198 29.2427 148.035 28.9322 148.035 28.4147V24.4075H150.002V23.1654Z" fill="#0068FF"/>
</svg>
