<svg width="20" height="21" viewBox="0 0 20 21" fill="none" xmlns="http://www.w3.org/2000/svg">
<path d="M4.1665 10.077H14.0498L11.0248 6.44364C10.8834 6.27346 10.8153 6.05406 10.8357 5.8337C10.856 5.61335 10.963 5.41009 11.1332 5.26864C11.3034 5.12719 11.5228 5.05914 11.7431 5.07945C11.9635 5.09977 12.1667 5.20679 12.3082 5.37697L16.4748 10.377C16.5029 10.4167 16.5279 10.4585 16.5498 10.502C16.5498 10.5436 16.5498 10.5686 16.6082 10.6103C16.6459 10.7059 16.6657 10.8076 16.6665 10.9103C16.6657 11.013 16.6459 11.1148 16.6082 11.2103C16.6082 11.252 16.6082 11.277 16.5498 11.3186C16.5279 11.3621 16.5029 11.4039 16.4748 11.4436L12.3082 16.4436C12.2298 16.5377 12.1317 16.6134 12.0208 16.6652C11.9099 16.7171 11.7889 16.7438 11.6665 16.7436C11.4718 16.744 11.2831 16.6762 11.1332 16.552C11.0488 16.482 10.979 16.3961 10.9279 16.2991C10.8768 16.2022 10.8453 16.0961 10.8352 15.9869C10.8252 15.8778 10.8367 15.7677 10.8693 15.6631C10.9018 15.5584 10.9547 15.4612 11.0248 15.377L14.0498 11.7436H4.1665C3.94549 11.7436 3.73353 11.6558 3.57725 11.4996C3.42097 11.3433 3.33317 11.1313 3.33317 10.9103C3.33317 10.6893 3.42097 10.4773 3.57725 10.321C3.73353 10.1648 3.94549 10.077 4.1665 10.077Z" fill="#0068FF"/>
</svg>
