<svg width="20" height="21" viewBox="0 0 20 21" fill="none" xmlns="http://www.w3.org/2000/svg">
<path d="M15.8335 10.077H5.95016L8.97516 6.44364C9.11661 6.27346 9.18466 6.05406 9.16435 5.8337C9.14403 5.61335 9.03701 5.41009 8.86683 5.26864C8.69665 5.12719 8.47725 5.05914 8.25689 5.07945C8.03654 5.09977 7.83328 5.20679 7.69183 5.37697L3.52516 10.377C3.49713 10.4167 3.47206 10.4585 3.45016 10.502C3.45016 10.5436 3.45016 10.5686 3.39183 10.6103C3.35406 10.7059 3.33428 10.8076 3.3335 10.9103C3.33428 11.013 3.35406 11.1148 3.39183 11.2103C3.39183 11.252 3.39183 11.277 3.45016 11.3186C3.47206 11.3621 3.49713 11.4039 3.52516 11.4436L7.69183 16.4436C7.77018 16.5377 7.8683 16.6134 7.9792 16.6652C8.0901 16.7171 8.21107 16.7438 8.3335 16.7436C8.52821 16.744 8.7169 16.6762 8.86683 16.552C8.95121 16.482 9.02096 16.3961 9.07209 16.2991C9.12322 16.2022 9.15471 16.0961 9.16478 15.9869C9.17484 15.8778 9.16327 15.7677 9.13073 15.6631C9.0982 15.5584 9.04533 15.4612 8.97516 15.377L5.95016 11.7436H15.8335C16.0545 11.7436 16.2665 11.6558 16.4228 11.4996C16.579 11.3433 16.6668 11.1313 16.6668 10.9103C16.6668 10.6893 16.579 10.4773 16.4228 10.321C16.2665 10.1648 16.0545 10.077 15.8335 10.077Z" fill="#3B8BFF"/>
</svg>
