<svg width="24" height="24" viewBox="0 0 24 24" fill="none" xmlns="http://www.w3.org/2000/svg">
<path d="M6.17 17.9985C6.3766 17.4131 6.75974 16.9062 7.2666 16.5477C7.77346 16.1891 8.37909 15.9966 9 15.9966C9.62091 15.9966 10.2265 16.1891 10.7334 16.5477C11.2403 16.9062 11.6234 17.4131 11.83 17.9985H22V19.998H11.83C11.6234 20.5834 11.2403 21.0903 10.7334 21.4489C10.2265 21.8075 9.62091 22 9 22C8.37909 22 7.77346 21.8075 7.2666 21.4489C6.75974 21.0903 6.3766 20.5834 6.17 19.998H2V17.9985H6.17ZM12.17 11.0002C12.3766 10.4149 12.7597 9.90795 13.2666 9.54939C13.7735 9.19083 14.3791 8.99828 15 8.99828C15.6209 8.99828 16.2265 9.19083 16.7334 9.54939C17.2403 9.90795 17.6234 10.4149 17.83 11.0002H22V12.9998H17.83C17.6234 13.5851 17.2403 14.0921 16.7334 14.4506C16.2265 14.8092 15.6209 15.0017 15 15.0017C14.3791 15.0017 13.7735 14.8092 13.2666 14.4506C12.7597 14.0921 12.3766 13.5851 12.17 12.9998H2V11.0002H12.17ZM6.17 4.00196C6.3766 3.41657 6.75974 2.90966 7.2666 2.55111C7.77346 2.19255 8.37909 2 9 2C9.62091 2 10.2265 2.19255 10.7334 2.55111C11.2403 2.90966 11.6234 3.41657 11.83 4.00196H22V6.00147H11.83C11.6234 6.58686 11.2403 7.09377 10.7334 7.45232C10.2265 7.81088 9.62091 8.00343 9 8.00343C8.37909 8.00343 7.77346 7.81088 7.2666 7.45232C6.75974 7.09377 6.3766 6.58686 6.17 6.00147H2V4.00196H6.17Z" fill="#5F656D"/>
</svg>
