<svg width="25" height="25" viewBox="0 0 25 25" fill="none" xmlns="http://www.w3.org/2000/svg">
<path d="M19.171 8.948C19.1404 8.89018 19.1219 8.82681 19.1163 8.76165C19.1108 8.6965 19.1185 8.6309 19.1389 8.56878C19.1593 8.50665 19.192 8.44927 19.2351 8.40007C19.2781 8.35086 19.3307 8.31083 19.3895 8.28237L21.7838 7.0902C21.9024 7.03224 22.0391 7.02374 22.1639 7.0666C22.2258 7.08781 22.2828 7.121 22.3318 7.16426C22.3807 7.20751 22.4207 7.25999 22.4494 7.3187C22.4781 7.37741 22.495 7.4412 22.499 7.50642C22.5031 7.57165 22.4943 7.63703 22.473 7.69884C22.4518 7.76065 22.4186 7.81767 22.3754 7.86666C22.3321 7.91564 22.2796 7.95563 22.2209 7.98433L19.8366 9.1765C19.7642 9.20704 19.6867 9.22388 19.6081 9.22617C19.5162 9.22687 19.426 9.20099 19.3485 9.15163C19.2709 9.10228 19.2093 9.03157 19.171 8.948ZM22.2209 16.6574L19.8267 15.4553C19.7093 15.3963 19.5735 15.3863 19.4488 15.4272C19.324 15.4682 19.2206 15.5568 19.161 15.6738C19.1042 15.793 19.0952 15.9295 19.1359 16.0551C19.1765 16.1807 19.2637 16.286 19.3796 16.3494L21.7739 17.5416C21.8455 17.5601 21.9208 17.5601 21.9924 17.5416C22.1024 17.5399 22.2087 17.5019 22.2947 17.4334C22.3806 17.3648 22.4415 17.2697 22.4676 17.1629C22.4937 17.0561 22.4837 16.9437 22.4391 16.8432C22.3944 16.7427 22.3177 16.6599 22.2209 16.6077V16.6574ZM19.8863 11.8191C19.7545 11.8191 19.6282 11.8715 19.535 11.9646C19.4419 12.0578 19.3895 12.1841 19.3895 12.3159C19.3895 12.4476 19.4419 12.574 19.535 12.6671C19.6282 12.7603 19.7545 12.8126 19.8863 12.8126H21.8732C22.005 12.8126 22.1313 12.7603 22.2245 12.6671C22.3176 12.574 22.37 12.4476 22.37 12.3159C22.37 12.1841 22.3176 12.0578 22.2245 11.9646C22.1313 11.8715 22.005 11.8191 21.8732 11.8191H19.8863ZM7.46784 8.83872H6.47437V14.7996H7.46784V8.83872ZM5.48089 8.64996L3.15616 7.84524C3.08251 7.81752 3.00314 7.80845 2.92514 7.81885C2.84713 7.82925 2.77291 7.8588 2.7091 7.90485C2.64125 7.95512 2.58675 8.02124 2.55038 8.09745C2.51401 8.17366 2.49687 8.25762 2.50047 8.34198V15.2963C2.50162 15.3757 2.52104 15.4537 2.55722 15.5243C2.5934 15.595 2.64537 15.6563 2.7091 15.7036C2.79354 15.7626 2.89422 15.7938 2.99721 15.793C3.04977 15.8025 3.1036 15.8025 3.15616 15.793L5.48089 14.9883V8.64996ZM16.4091 8.88839V5.36156C16.4078 5.27619 16.3853 5.1925 16.3437 5.11795C16.3021 5.0434 16.2426 4.98032 16.1707 4.93436C16.0973 4.89523 16.0154 4.87476 15.9322 4.87476C15.8491 4.87476 15.7672 4.89523 15.6938 4.93436L8.46132 8.53074V15.1075L15.6938 18.7735C15.7624 18.8052 15.8368 18.8221 15.9124 18.8231C16.0027 18.8202 16.0911 18.7964 16.1707 18.7536C16.25 18.7033 16.3141 18.6323 16.3562 18.5483C16.3982 18.4643 16.4165 18.3704 16.4091 18.2767V14.7996C16.9701 14.6851 17.4743 14.3802 17.8364 13.9367C18.1985 13.4931 18.3962 12.9381 18.3961 12.3656V11.3721C18.4078 10.791 18.2154 10.2243 17.8523 9.77045C17.4893 9.31664 16.9786 9.00451 16.4091 8.88839ZM6.21606 15.793L5.48089 16.0414V20.2637C5.48089 20.3954 5.53323 20.5218 5.62638 20.6149C5.71954 20.7081 5.84589 20.7604 5.97763 20.7604H7.96458C8.09632 20.7604 8.22267 20.7081 8.31582 20.6149C8.40898 20.5218 8.46132 20.3954 8.46132 20.2637V16.2202L7.61686 15.793H6.21606Z" fill="#343436"/>
</svg>
