<svg width="25" height="25" viewBox="0 0 25 25" fill="none" xmlns="http://www.w3.org/2000/svg">
<path fill-rule="evenodd" clip-rule="evenodd" d="M14.088 2.90146H8.52263C6.8533 2.90146 5.5 4.25472 5.5 5.9241V19.8788C5.5 20.6801 5.8186 21.4494 6.38526 22.0161C6.95191 22.5828 7.72126 22.9014 8.52259 22.9014H17.1439C17.9453 22.9014 18.7146 22.5828 19.2813 22.0161C19.8479 21.4495 20.1665 20.6801 20.1665 19.8788V8.21362C19.9799 8.43431 19.7025 8.56823 19.4025 8.56823H14.833C14.2811 8.56823 13.833 8.12016 13.833 7.56823V3.56823C13.833 3.31764 13.927 3.08164 14.0876 2.90156L14.088 2.90146ZM9.50015 19.5681H15.8335C16.2015 19.5681 16.5002 19.2695 16.5002 18.9015C16.5002 18.5335 16.2015 18.2348 15.8335 18.2348H9.50015C9.13215 18.2348 8.83349 18.5335 8.83349 18.9015C8.83349 19.2695 9.13215 19.5681 9.50015 19.5681ZM9.50015 16.9015H16.8335C17.2015 16.9015 17.5002 16.6028 17.5002 16.2348C17.5002 15.8668 17.2015 15.5681 16.8335 15.5681H9.50015C9.13215 15.5681 8.83349 15.8668 8.83349 16.2348C8.83349 16.6028 9.13215 16.9015 9.50015 16.9015ZM9.50015 14.2348H16.8335C17.2015 14.2348 17.5002 13.9361 17.5002 13.5681C17.5002 13.2001 17.2015 12.9015 16.8335 12.9015H9.50015C9.13215 12.9015 8.83349 13.2001 8.83349 13.5681C8.83349 13.9361 9.13215 14.2348 9.50015 14.2348ZM9.50015 11.5681H15.8335C16.2015 11.5681 16.5002 11.2695 16.5002 10.9015C16.5002 10.5335 16.2015 10.2348 15.8335 10.2348H9.50015C9.13215 10.2348 8.83349 10.5335 8.83349 10.9015C8.83349 11.2695 9.13215 11.5681 9.50015 11.5681ZM15.2727 3.0668C15.0754 2.89418 14.7961 2.85281 14.558 2.96085C14.32 3.06888 14.1666 3.30683 14.1666 3.56812V7.56813C14.1666 7.93614 14.4653 8.23479 14.8333 8.23479H19.4028C19.6802 8.23479 19.9289 8.06277 20.0268 7.80279C20.1249 7.54282 20.0508 7.24954 19.8421 7.06679L15.2726 3.06679L15.2727 3.0668Z" fill="#343436"/>
</svg>
