<svg width="16" height="16" viewBox="0 0 16 16" fill="none" xmlns="http://www.w3.org/2000/svg">
<path d="M7 11C7 10.4477 7.44772 10 8 10C8.55229 10 9 10.4477 9 11C9 11.5523 8.55228 12 8 12C7.44772 12 7 11.5523 7 11Z" fill="#343436"/>
<path d="M7.8 3.8C6.6402 3.8 5.7 4.7402 5.7 5.9V6H7.1V5.9C7.1 5.5134 7.4134 5.2 7.8 5.2H8.2C8.5866 5.2 8.9 5.5134 8.9 5.9V6.22405C8.9 6.46541 8.77567 6.68973 8.571 6.81765L8.287 6.99515C7.673 7.3789 7.3 8.05189 7.3 8.77595V9H8.7V8.77595C8.7 8.53459 8.82433 8.31026 9.029 8.18235L9.313 8.00485C9.927 7.6211 10.3 6.94811 10.3 6.22405V5.9C10.3 4.7402 9.3598 3.8 8.2 3.8H7.8Z" fill="#343436"/>
<path fill-rule="evenodd" clip-rule="evenodd" d="M8 15C11.866 15 15 11.866 15 8C15 4.13401 11.866 1 8 1C4.13401 1 1 4.13401 1 8C1 11.866 4.13401 15 8 15ZM8 14C11.3137 14 14 11.3137 14 8C14 4.68629 11.3137 2 8 2C4.68629 2 2 4.68629 2 8C2 11.3137 4.68629 14 8 14Z" fill="#343436"/>
</svg>
