<svg width="25" height="25" viewBox="0 0 25 25" fill="none" xmlns="http://www.w3.org/2000/svg">
<path d="M19.5 4.87476H15.32C14.9 3.71476 13.8 2.87476 12.5 2.87476C11.2 2.87476 10.1 3.71476 9.68 4.87476H5.5C5.36 4.87476 5.23 4.88476 5.1 4.91476C4.78151 4.98158 4.48404 5.1248 4.23319 5.3321C3.98234 5.5394 3.78563 5.80456 3.66 6.10476C3.56 6.33476 3.5 6.59476 3.5 6.87476V20.8748C3.5 21.1448 3.56 21.4148 3.66 21.6548C3.76 21.8948 3.91 22.1048 4.09 22.2948C4.36 22.5648 4.71 22.7648 5.1 22.8448C5.23 22.8648 5.36 22.8748 5.5 22.8748H19.5C20.6 22.8748 21.5 21.9748 21.5 20.8748V6.87476C21.5 5.77476 20.6 4.87476 19.5 4.87476ZM11.5 16.0448L10.09 17.4648L6.5 13.8748L10.09 10.2848L11.5 11.7048L9.33 13.8748L11.5 16.0448ZM12.5 6.12476C12.09 6.12476 11.75 5.78476 11.75 5.37476C11.75 4.96476 12.09 4.62476 12.5 4.62476C12.91 4.62476 13.25 4.96476 13.25 5.37476C13.25 5.78476 12.91 6.12476 12.5 6.12476ZM14.91 17.4648L13.5 16.0448L15.67 13.8748L13.5 11.7048L14.91 10.2848L18.5 13.8748L14.91 17.4648Z" fill="#343436"/>
</svg>
