<svg width="25" height="25" viewBox="0 0 25 25" fill="none" xmlns="http://www.w3.org/2000/svg">
<path d="M20.375 5.87476H18.125C17.45 5.87476 17 6.32476 17 6.99976C17 7.67476 16.55 8.12476 15.875 8.12476C15.2 8.12476 14.75 7.67476 14.75 6.99976C14.75 6.32476 14.3 5.87476 13.625 5.87476H11.375C10.7 5.87476 10.25 6.32476 10.25 6.99976C10.25 7.67476 9.8 8.12476 9.125 8.12476C8.45 8.12476 8 7.67476 8 6.99976C8 6.32476 7.55 5.87476 6.875 5.87476H4.625C3.95 5.87476 3.5 6.32476 3.5 6.99976V18.2498C3.5 18.9248 3.95 19.3748 4.625 19.3748H20.375C21.05 19.3748 21.5 18.9248 21.5 18.2498V6.99976C21.5 6.32476 21.05 5.87476 20.375 5.87476ZM11.375 15.9998H6.875V11.4998H11.375V15.9998ZM18.125 15.9998H13.625V14.8748H18.125V15.9998ZM18.125 12.6248H13.625V11.4998H18.125V12.6248Z" fill="#343436"/>
</svg>
