<svg width="17" height="17" viewBox="0 0 17 17" fill="none" xmlns="http://www.w3.org/2000/svg">
<path d="M15.0081 5.48143C14.9579 5.4595 14.9013 5.4506 14.8453 5.45579C14.7893 5.46098 14.7362 5.48005 14.6925 5.51069L11.733 7.60012L8.72749 4.29865C8.69936 4.27025 8.66443 4.24744 8.6251 4.2318C8.58577 4.21617 8.54299 4.20807 8.49969 4.20807C8.45639 4.20807 8.4136 4.21617 8.37427 4.2318C8.33495 4.24744 8.30001 4.27025 8.27188 4.29865L5.26633 7.60012L2.30687 5.51069C2.26325 5.47975 2.21011 5.46049 2.15398 5.45525C2.09784 5.45002 2.04116 5.45905 1.99089 5.48123C1.94062 5.50341 1.89895 5.53778 1.871 5.58011C1.84306 5.62245 1.83005 5.67091 1.83357 5.71953L2.36425 13.2682C2.38253 13.5224 2.51237 13.7611 2.72735 13.9358C2.94234 14.1104 3.22633 14.2077 3.52155 14.2081H13.4778C13.773 14.2077 14.057 14.1104 14.272 13.9358C14.487 13.7611 14.6168 13.5224 14.6351 13.2682L15.1658 5.71953C15.1692 5.67091 15.1562 5.62247 15.1282 5.58017C15.1001 5.53787 15.0584 5.50355 15.0081 5.48143Z" fill="#FFA800"/>
</svg>
