<svg width="25" height="25" viewBox="0 0 25 25" fill="none" xmlns="http://www.w3.org/2000/svg">
<path d="M10.0579 15.5395C10.0579 16.8879 11.1551 17.9853 12.5033 17.9853C13.8517 17.9853 14.9486 16.8881 14.9486 15.5395C14.9486 14.1911 13.8517 13.0942 12.5033 13.0942C11.1549 13.0942 10.0579 14.1915 10.0579 15.5395Z" fill="#343436"/>
<path d="M12.5032 18.2422C10.0877 18.2422 8.12256 20.2075 8.12256 22.6229C8.12256 22.7765 8.24695 22.9007 8.40041 22.9007H16.6061C16.6083 22.9009 16.6106 22.9007 16.6118 22.9007C16.7654 22.9007 16.8896 22.7765 16.8896 22.6229C16.8896 22.6035 16.8877 22.5839 16.8838 22.5657C16.8526 20.1763 14.8995 18.2422 12.5035 18.2422L12.5032 18.2422Z" fill="#343436"/>
<path d="M15.6471 16.6325C15.6471 17.7964 16.594 18.7435 17.7585 18.7435C18.9224 18.7435 19.8695 17.7966 19.8695 16.6325C19.8695 15.4684 18.9226 14.5215 17.7585 14.5215C16.5944 14.5215 15.6471 15.4684 15.6471 16.6325Z" fill="#343436"/>
<path d="M17.7577 18.876C17.2366 18.876 16.7329 18.9806 16.2605 19.1874C16.1799 19.2226 16.1208 19.2937 16.101 19.379C16.0812 19.4648 16.1031 19.5545 16.1601 19.6216C16.8142 20.3915 17.1746 21.3724 17.1746 22.3832C17.1746 22.4588 17.1733 22.534 17.169 22.6086C17.1645 22.6847 17.192 22.7593 17.2444 22.8147C17.2975 22.8701 17.3703 22.9015 17.4466 22.9015H21.2288C21.3825 22.9015 21.5067 22.7773 21.5067 22.6237C21.5065 20.5572 19.8247 18.876 17.7577 18.876Z" fill="#343436"/>
<path d="M7.24836 18.7431C8.41247 18.7431 9.35938 17.7961 9.35938 16.632C9.35938 15.4679 8.41247 14.521 7.24836 14.521C6.08424 14.521 5.13733 15.4679 5.13733 16.632C5.13733 17.7961 6.08424 18.7431 7.24836 18.7431Z" fill="#343436"/>
<path d="M8.8466 19.6216C8.90357 19.5547 8.92527 19.4648 8.90551 19.379C8.88574 19.2933 8.82665 19.2222 8.74605 19.1873C8.27347 18.9806 7.76987 18.876 7.24905 18.876C5.18182 18.876 3.5 20.5574 3.5 22.6237C3.5 22.7773 3.62439 22.9015 3.77785 22.9015H7.56023C7.63657 22.9015 7.71001 22.8701 7.76252 22.8145C7.81502 22.7589 7.84215 22.6839 7.83789 22.6076C7.83343 22.5338 7.83207 22.459 7.83207 22.3834C7.83188 21.3724 8.19209 20.3916 8.8466 19.6216Z" fill="#343436"/>
<path d="M13.3724 3.42775C15.018 4.2452 16.04 5.89413 16.04 7.73135C16.04 9.56818 15.0178 11.2171 13.3724 12.0346C13.2482 12.0962 13.1885 12.2403 13.2328 12.3721C13.2714 12.4868 13.3784 12.5612 13.4956 12.5612C13.513 12.5612 13.5307 12.5595 13.5481 12.5562C14.4022 12.3926 15.1956 12.0026 15.8509 11.4254L17.1749 11.7807C17.2727 11.8065 17.3772 11.7782 17.4467 11.7052C17.5171 11.6323 17.5421 11.5271 17.512 11.4304L17.0317 9.87627C17.3539 9.21497 17.5236 8.4758 17.5236 7.73137C17.5236 5.38031 15.8515 3.35088 13.5479 2.90639C13.4129 2.88024 13.2768 2.95832 13.2321 3.09027C13.1885 3.22164 13.2482 3.36575 13.3724 3.42775Z" fill="#343436"/>
<path d="M8.58672 11.4164C8.58556 11.6828 8.60125 12.1782 8.63148 13.1339C8.63535 13.253 8.7146 13.3567 8.82834 13.3912C8.85508 13.3993 8.88201 13.4032 8.90894 13.4032C8.99691 13.4032 9.08197 13.3613 9.13506 13.2867L10.014 12.0562C10.1682 12.0941 10.3234 12.1236 10.4765 12.1434C10.6704 12.1722 10.8768 12.1868 11.0903 12.1868C13.5472 12.1868 15.546 10.1879 15.546 7.73107C15.546 5.27422 13.5472 3.27539 11.0903 3.27539C10.8762 3.27539 10.6695 3.28992 10.4797 3.31821C8.28757 3.61621 6.63477 5.51312 6.63477 7.73089C6.63515 9.21817 7.36194 10.5857 8.58672 11.4164ZM8.53673 7.99983C8.53673 7.7493 8.74057 7.54546 8.9911 7.54546C9.24163 7.54546 9.44547 7.7493 9.44547 7.99983C9.44547 8.25036 9.24163 8.45458 8.9911 8.45458C8.74057 8.45458 8.53673 8.25075 8.53673 7.99983ZM12.7351 7.99983C12.7351 7.7493 12.939 7.54546 13.1901 7.54546C13.4406 7.54546 13.6444 7.7493 13.6444 7.99983C13.6444 8.25036 13.4408 8.45458 13.1901 8.45458C12.939 8.45458 12.7351 8.25075 12.7351 7.99983ZM11.0907 8.45458C10.8398 8.45458 10.636 8.25075 10.636 7.99983C10.636 7.74891 10.8398 7.54546 11.0907 7.54546C11.3412 7.54546 11.5451 7.7493 11.5451 7.99983C11.5451 8.25036 11.3412 8.45458 11.0907 8.45458Z" fill="#343436"/>
</svg>
