<svg width="25" height="25" viewBox="0 0 25 25" fill="none" xmlns="http://www.w3.org/2000/svg">
<path d="M20.9201 10.3536H19.2724V14.6488C19.2724 16.1565 18.0487 17.3843 16.541 17.3843H11.7979V17.5123C11.7979 18.3801 12.5057 19.088 13.3736 19.088H17.4648L19.9203 21.5435C19.9963 21.6195 20.1003 21.6595 20.2043 21.6595C20.2562 21.6595 20.3082 21.6515 20.3562 21.6275C20.5042 21.5675 20.6042 21.4195 20.6042 21.2596V19.088H20.9241C21.792 19.088 22.4998 18.3801 22.4998 17.5123V11.9293C22.4958 11.0615 21.788 10.3536 20.9201 10.3536Z" fill="#343436"/>
<path d="M16.5413 4.87476H4.43563C3.36784 4.87476 2.5 5.74259 2.5 6.81039V14.6489C2.5 15.7167 3.36784 16.5845 4.43563 16.5845H4.97153V19.536C4.97153 19.6959 5.06751 19.8439 5.21549 19.9039C5.26748 19.9239 5.31947 19.9359 5.37146 19.9359C5.47544 19.9359 5.57542 19.8959 5.6514 19.8159L8.88679 16.5845H16.5413C17.6051 16.5845 18.473 15.7167 18.473 14.6489V6.81039C18.473 5.74259 17.6051 4.87476 16.5413 4.87476ZM6.44725 11.9974C5.74738 11.9974 5.17549 11.4295 5.17549 10.7296C5.17549 10.0298 5.74738 9.46189 6.44725 9.46189C7.14712 9.46189 7.71501 10.0298 7.71501 10.7296C7.71501 11.4295 7.14712 11.9974 6.44725 11.9974ZM10.4865 11.9974C9.78662 11.9974 9.21873 11.4295 9.21873 10.7296C9.21873 10.0298 9.78662 9.46189 10.4865 9.46189C11.1864 9.46189 11.7582 10.0298 11.7582 10.7296C11.7582 11.4295 11.1864 11.9974 10.4865 11.9974ZM14.5257 11.9974C13.8259 11.9974 13.258 11.4295 13.258 10.7296C13.258 10.0298 13.8259 9.46189 14.5257 9.46189C15.2256 9.46189 15.7975 10.0298 15.7975 10.7296C15.7975 11.4295 15.2256 11.9974 14.5257 11.9974Z" fill="#343436"/>
</svg>
