<svg width="24" height="25" viewBox="0 0 24 25" fill="none" xmlns="http://www.w3.org/2000/svg">
<path fill-rule="evenodd" clip-rule="evenodd" d="M15.0293 16.5899C13.5987 17.7825 11.7581 18.5 9.75 18.5C5.19365 18.5 1.5 14.8063 1.5 10.25C1.5 5.69365 5.19365 2 9.75 2C14.3063 2 18 5.69365 18 10.25C18 12.2581 17.2825 14.0986 16.09 15.5293L21.5304 20.9697L20.4697 22.0303L15.0293 16.5899ZM16.5 10.25C16.5 13.9779 13.4779 17 9.75 17C6.02208 17 3 13.9779 3 10.25C3 6.52208 6.02208 3.5 9.75 3.5C13.4779 3.5 16.5 6.52208 16.5 10.25Z" fill="#343436"/>
</svg>
