<svg width="25" height="25" viewBox="0 0 25 25" fill="none" xmlns="http://www.w3.org/2000/svg">
<path d="M20.8922 11.7978H20.0294V10.0286C20.0294 8.79783 19.0098 7.75937 17.7157 7.75937H13.598V4.95168C13.598 4.33629 13.0882 3.87476 12.5 3.87476C11.8725 3.87476 11.402 4.37476 11.402 4.95168V7.75937H7.2451C5.9902 7.75937 4.93137 8.75937 4.93137 10.0286V11.7978H4.06863C3.20588 11.7978 2.5 12.4901 2.5 13.3363V15.6824C2.5 16.5286 3.20588 17.2209 4.06863 17.2209H4.93137V18.9901C4.93137 20.2209 5.95098 21.2594 7.2451 21.2594H17.7549C19.0098 21.2594 20.0686 20.2594 20.0686 18.9901V17.2209H20.9314C21.7941 17.2209 22.5 16.5286 22.5 15.6824V13.3363C22.4608 12.4901 21.7549 11.7978 20.8922 11.7978ZM7.71569 12.3363C7.71569 11.4901 8.42157 10.8363 9.2451 10.8363C10.1078 10.8363 10.7745 11.5286 10.7745 12.3363C10.7745 13.1824 10.0686 13.8363 9.2451 13.8363C8.38235 13.8363 7.71569 13.1824 7.71569 12.3363ZM15.8725 17.8363C15.8725 18.1824 15.598 18.4517 15.2451 18.4517H9.71569C9.36275 18.4517 9.08823 18.1824 9.08823 17.8363V17.3748C9.08823 17.0286 9.36275 16.7594 9.71569 16.7594H15.2451C15.598 16.7594 15.8725 17.0286 15.8725 17.3748V17.8363ZM15.7549 13.8363C14.8922 13.8363 14.2255 13.144 14.2255 12.3363C14.2255 11.4901 14.8922 10.8363 15.7549 10.8363C16.6176 10.8363 17.2843 11.5286 17.2843 12.3363C17.2843 13.1824 16.5784 13.8363 15.7549 13.8363Z" fill="#343436"/>
</svg>
