<svg width="25" height="25" viewBox="0 0 25 25" fill="none" xmlns="http://www.w3.org/2000/svg">
<path d="M3.03355 18.2754L3.86961 18.4226C3.96673 18.7873 4.11104 19.1378 4.29888 19.4651L3.81441 20.1601C3.72935 20.2834 3.68996 20.4326 3.70302 20.5818C3.71608 20.7311 3.78077 20.8711 3.88596 20.9778L4.38882 21.4806C4.4955 21.5858 4.63553 21.6505 4.78478 21.6636C4.93402 21.6766 5.08315 21.6372 5.20648 21.5522L5.90354 21.0636C6.23351 21.2565 6.58748 21.4049 6.95628 21.5052L7.10346 22.3412C7.12943 22.4905 7.20721 22.6258 7.32312 22.7234C7.43902 22.821 7.58563 22.8746 7.73714 22.8748H8.44851C8.60003 22.8746 8.74663 22.821 8.86254 22.7234C8.97844 22.6258 9.05622 22.4905 9.0822 22.3412L9.22938 21.5052C9.59426 21.4067 9.94472 21.261 10.2719 21.0718L10.969 21.5604C11.0923 21.6454 11.2414 21.6848 11.3907 21.6718C11.5399 21.6587 11.6799 21.594 11.7866 21.4888L12.2895 20.986C12.3947 20.8793 12.4594 20.7393 12.4724 20.59C12.4855 20.4408 12.4461 20.2916 12.361 20.1683L11.8725 19.4712C12.0618 19.1441 12.2075 18.7936 12.3058 18.4287L13.1419 18.2815C13.2912 18.2556 13.4265 18.1778 13.5241 18.0619C13.6217 17.946 13.6753 17.7994 13.6754 17.6479V16.9304C13.6753 16.7788 13.6217 16.6322 13.5241 16.5163C13.4265 16.4004 13.2912 16.3226 13.1419 16.2967L12.3079 16.1454C12.2095 15.7805 12.0639 15.43 11.8745 15.1029L12.3631 14.4058C12.4481 14.2825 12.4875 14.1334 12.4745 13.9841C12.4614 13.8349 12.3967 13.6948 12.2915 13.5882L11.7907 13.0792C11.684 12.974 11.544 12.9093 11.3947 12.8962C11.2455 12.8832 11.0964 12.9226 10.973 13.0076L10.2678 13.5003C9.94063 13.3111 9.59017 13.1654 9.22529 13.0669L9.07811 12.2308C9.05214 12.0816 8.97435 11.9462 8.85845 11.8487C8.74254 11.7511 8.59594 11.6975 8.44442 11.6973H7.7351C7.58359 11.6975 7.43698 11.7511 7.32107 11.8487C7.20517 11.9462 7.12739 12.0816 7.10141 12.2308L6.95628 13.0669C6.5914 13.1654 6.24093 13.3111 5.91376 13.5003L5.2167 13.0117C5.09337 12.9267 4.94424 12.8873 4.795 12.9003C4.64575 12.9134 4.50573 12.9781 4.39904 13.0833L3.89005 13.5841C3.78486 13.6908 3.72017 13.8308 3.70711 13.98C3.69405 14.1293 3.73344 14.2784 3.8185 14.4017L4.29888 15.107C4.11202 15.4331 3.9684 15.7822 3.87165 16.1454L3.03355 16.2926C2.88427 16.3186 2.74894 16.3963 2.65136 16.5122C2.55377 16.6281 2.50019 16.7748 2.50002 16.9263V17.6356C2.49873 17.7882 2.55166 17.9362 2.64937 18.0534C2.74709 18.1706 2.88323 18.2493 3.03355 18.2754ZM8.08874 15.2317C8.49303 15.2317 8.88825 15.3516 9.22441 15.5762C9.56057 15.8008 9.82257 16.12 9.97729 16.4936C10.132 16.8671 10.1725 17.2781 10.0936 17.6746C10.0147 18.0711 9.82006 18.4354 9.53417 18.7213C9.24829 19.0071 8.88406 19.2018 8.48753 19.2807C8.09101 19.3596 7.68 19.3191 7.30648 19.1644C6.93296 19.0097 6.6137 18.7476 6.38909 18.4115C6.16447 18.0753 6.04459 17.6801 6.04459 17.2758C6.04459 16.7337 6.25995 16.2137 6.6433 15.8304C7.02666 15.447 7.5466 15.2317 8.08874 15.2317ZM18.2298 19.9905V17.2922H17.3815C17.3361 17.2911 17.2918 17.2778 17.2533 17.2537C17.2148 17.2297 17.1834 17.1957 17.1625 17.1554C17.1417 17.1151 17.132 17.0699 17.1345 17.0245C17.1371 16.9792 17.1518 16.9354 17.177 16.8977L18.841 14.4263C18.8636 14.3925 18.8939 14.3647 18.9295 14.3451C18.9651 14.3256 19.0048 14.3148 19.0454 14.3138C19.086 14.3148 19.1257 14.3256 19.1613 14.3451C19.1969 14.3647 19.2272 14.3925 19.2498 14.4263L20.9178 16.8977C20.9431 16.9354 20.9578 16.9792 20.9604 17.0245C20.9629 17.0699 20.9532 17.1151 20.9324 17.1554C20.9115 17.1957 20.8801 17.2297 20.8416 17.2537C20.8031 17.2778 20.7588 17.2911 20.7134 17.2922H19.8569V20.804C19.8569 21.0209 19.7708 21.2289 19.6174 21.3822C19.4641 21.5355 19.2561 21.6217 19.0393 21.6217H14.1272C14.0301 21.6217 13.9371 21.5831 13.8684 21.5145C13.7998 21.4459 13.7613 21.3528 13.7613 21.2558V20.3564C13.7613 20.2593 13.7998 20.1662 13.8684 20.0976C13.9371 20.029 14.0301 19.9905 14.1272 19.9905H18.2298ZM21.9093 9.45284C22.0585 9.42687 22.1939 9.34909 22.2915 9.23318C22.389 9.11728 22.4426 8.97067 22.4428 8.81916V8.10983C22.4426 7.95832 22.389 7.81171 22.2915 7.69581C22.1939 7.5799 22.0585 7.50212 21.9093 7.47615L21.0732 7.32897C20.9788 6.96396 20.8373 6.61281 20.6521 6.2844L21.1407 5.58735C21.2257 5.46402 21.2651 5.31489 21.2521 5.16564C21.239 5.01639 21.1743 4.87637 21.0691 4.76969L20.5622 4.26069C20.4555 4.15551 20.3155 4.09081 20.1662 4.07775C20.017 4.0647 19.8678 4.10409 19.7445 4.18915L19.0413 4.6777C18.7129 4.48814 18.361 4.34244 17.9947 4.24434L17.8516 3.40828C17.8256 3.25901 17.7479 3.12368 17.632 3.02609C17.5161 2.9285 17.3694 2.87492 17.2179 2.87476H16.5066C16.355 2.87492 16.2084 2.9285 16.0925 3.02609C15.9766 3.12368 15.8989 3.25901 15.8729 3.40828L15.7257 4.24434C15.3608 4.34278 15.0103 4.48847 14.6832 4.6777L13.9861 4.18915C13.8628 4.10409 13.7137 4.0647 13.5644 4.07775C13.4152 4.09081 13.2751 4.15551 13.1685 4.26069L12.6595 4.76355C12.5543 4.87024 12.4896 5.01026 12.4765 5.15951C12.4635 5.30876 12.5029 5.45789 12.5879 5.58122L13.0765 6.27827C12.8872 6.60539 12.7415 6.95587 12.6431 7.32079L11.8071 7.46797C11.6578 7.49394 11.5225 7.57172 11.4249 7.68763C11.3273 7.80354 11.2737 7.95014 11.2735 8.10166V8.81098C11.2737 8.96249 11.3273 9.1091 11.4249 9.22501C11.5225 9.34091 11.6578 9.41869 11.8071 9.44467L12.6452 9.59184C12.7435 9.95678 12.8892 10.3073 13.0785 10.6344L12.59 11.3314C12.5049 11.4548 12.4655 11.6039 12.4786 11.7531C12.4916 11.9024 12.5563 12.0424 12.6615 12.1491L13.1603 12.6703C13.267 12.7755 13.407 12.8402 13.5562 12.8533C13.7055 12.8663 13.8546 12.8269 13.9779 12.7419L14.675 12.2533C15.0021 12.4426 15.3526 12.5883 15.7175 12.6867L15.8647 13.5228C15.8907 13.672 15.9685 13.8074 16.0844 13.9049C16.2003 14.0025 16.3469 14.0561 16.4984 14.0563H17.2098C17.3613 14.0561 17.5079 14.0025 17.6238 13.9049C17.7397 13.8074 17.8175 13.672 17.8434 13.5228L17.9947 12.6826C18.3596 12.5842 18.7101 12.4385 19.0372 12.2492L19.7343 12.7378C19.8576 12.8229 20.0067 12.8622 20.156 12.8492C20.3052 12.8361 20.4453 12.7714 20.5519 12.6663L21.0609 12.1654C21.1661 12.0588 21.2308 11.9187 21.2439 11.7695C21.2569 11.6202 21.2175 11.4711 21.1325 11.3478L20.6521 10.6425C20.839 10.3164 20.9826 9.96734 21.0793 9.60411L21.9093 9.45284ZM16.8622 10.5178C16.458 10.5178 16.0627 10.398 15.7266 10.1733C15.3904 9.94873 15.1284 9.62948 14.9737 9.25596C14.819 8.88244 14.7785 8.47143 14.8574 8.0749C14.9362 7.67837 15.1309 7.31414 15.4168 7.02826C15.7027 6.74238 16.0669 6.54769 16.4635 6.46882C16.86 6.38994 17.271 6.43042 17.6445 6.58514C18.018 6.73986 18.3373 7.00186 18.5619 7.33802C18.7865 7.67418 18.9064 8.0694 18.9064 8.47369C18.9064 9.01584 18.691 9.53577 18.3077 9.91913C17.9243 10.3025 17.4044 10.5178 16.8622 10.5178ZM6.7212 5.75906V8.45734H7.56952C7.61492 8.45844 7.65919 8.47172 7.6977 8.49578C7.73621 8.51984 7.76755 8.55381 7.78844 8.59413C7.80933 8.63445 7.81901 8.67964 7.81646 8.72498C7.81391 8.77032 7.79922 8.81414 7.77394 8.85186L6.11613 11.3232C6.09355 11.357 6.0632 11.3848 6.02763 11.4044C5.99205 11.4239 5.9523 11.4347 5.91172 11.4357C5.87113 11.4347 5.83138 11.4239 5.7958 11.4044C5.76023 11.3848 5.72988 11.357 5.7073 11.3232L4.03314 8.85186C4.00786 8.81414 3.99317 8.77032 3.99062 8.72498C3.98807 8.67964 3.99775 8.63445 4.01864 8.59413C4.03953 8.55381 4.07087 8.51984 4.10938 8.49578C4.14789 8.47172 4.19216 8.45844 4.23755 8.45734H5.08792V4.94548C5.08792 4.72863 5.17407 4.52065 5.32741 4.36731C5.48075 4.21397 5.68873 4.12782 5.90558 4.12782H10.8238C10.9209 4.12782 11.0139 4.16637 11.0826 4.23499C11.1512 4.30361 11.1897 4.39668 11.1897 4.49373V5.39315C11.1897 5.4412 11.1803 5.48879 11.1619 5.53318C11.1435 5.57757 11.1165 5.61791 11.0826 5.65189C11.0486 5.68586 11.0082 5.71282 10.9638 5.7312C10.9194 5.74959 10.8719 5.75906 10.8238 5.75906H6.7212Z" fill="#343436"/>
</svg>
