<svg width="25" height="25" viewBox="0 0 25 25" fill="none" xmlns="http://www.w3.org/2000/svg">
<path d="M21.2957 10.5414H20.6291C19.9839 6.75651 16.6721 3.87476 12.7151 3.87476C8.75813 3.87476 5.46781 6.75643 4.80115 10.5414H4.15595C3.25272 10.5414 2.5 11.2942 2.5 12.1974V14.9715C2.5 15.4232 2.67206 15.8316 2.99458 16.1543C3.3171 16.4554 3.72573 16.6274 4.1558 16.6274H5.6397C6.06977 16.6274 6.41389 16.2833 6.41389 15.8532V11.8962C6.41389 8.43389 9.23105 5.61669 12.6935 5.61669C16.1558 5.61669 18.973 8.43385 18.973 11.8962V17.2941C18.973 18.7135 17.8118 19.8747 16.3924 19.8747H14.973C14.8655 19.423 14.4784 19.1005 13.9837 19.1005L11.4247 19.1006C10.844 19.1006 10.3925 19.5738 10.3925 20.1329V20.8425C10.3925 21.4232 10.8656 21.8748 11.4247 21.8748H14.0269C14.5 21.8748 14.887 21.5306 15.0162 21.1006H16.4356C18.5216 21.1006 20.2421 19.4017 20.2421 17.2941V16.6058H21.2959C21.726 16.6058 22.156 16.4338 22.4571 16.1327C22.7796 15.8102 22.9517 15.4016 22.9517 14.9499L22.9515 12.1974C22.9515 11.2941 22.2204 10.563 21.2956 10.5416L21.2957 10.5414Z" fill="#343436"/>
</svg>
