<svg width="16" height="17" viewBox="0 0 16 17" fill="none" xmlns="http://www.w3.org/2000/svg">
<g clip-path="url(#clip0_1890_41733)">
<path d="M13.2747 6.49998H8.97467V2.49998C9.01694 2.22767 8.99437 1.94923 8.90881 1.68728C8.82325 1.42533 8.67711 1.18725 8.48225 0.992397C8.28739 0.79754 8.04932 0.651395 7.78737 0.565834C7.52542 0.480274 7.24698 0.457712 6.97467 0.499981C6.83478 0.509636 6.7015 0.563152 6.59378 0.652918C6.48606 0.742684 6.40939 0.864129 6.37467 0.999981L4 8.49998V16.5H12.5747C13.2105 16.4877 13.8213 16.2495 14.2976 15.8281C14.774 15.4067 15.0849 14.8296 15.1747 14.2L15.9747 9.59998C16.0376 9.22736 16.0164 8.84537 15.9126 8.482C15.8088 8.11864 15.625 7.7831 15.3747 7.49998C15.1312 7.17636 14.813 6.91641 14.4474 6.74228C14.0817 6.56816 13.6794 6.48503 13.2747 6.49998V6.49998Z" fill="#8D8D8F"/>
<path d="M2.66667 8.5H0V16.5H2.66667V8.5Z" fill="#8D8D8F"/>
</g>
<defs>
<clipPath id="clip0_1890_41733">
<rect width="16" height="16" fill="white" transform="translate(0 0.5)"/>
</clipPath>
</defs>
</svg>
