<svg width="25" height="25" viewBox="0 0 25 25" fill="none" xmlns="http://www.w3.org/2000/svg">
<path d="M22.2627 7.7848C22.1873 7.75191 22.1025 7.73855 22.0184 7.74634C21.9344 7.75413 21.8548 7.78273 21.7892 7.82869L17.35 10.9628L12.8417 6.01063C12.7995 5.96802 12.7471 5.93381 12.6881 5.91036C12.6291 5.8869 12.565 5.87476 12.5 5.87476C12.4351 5.87476 12.3709 5.8869 12.3119 5.91036C12.2529 5.93381 12.2005 5.96802 12.1583 6.01063L7.64999 10.9628L3.21079 7.82869C3.14536 7.78228 3.06565 7.75338 2.98145 7.74553C2.89725 7.73768 2.81223 7.75122 2.73682 7.78449C2.66142 7.81777 2.59892 7.86932 2.557 7.93282C2.51507 7.99633 2.49556 8.06901 2.50085 8.14195L3.29687 19.4649C3.32428 19.8463 3.51904 20.2044 3.84152 20.4663C4.16399 20.7282 4.58998 20.8742 5.03281 20.8748H19.9672C20.4101 20.8742 20.836 20.7282 21.1585 20.4663C21.481 20.2044 21.6758 19.8463 21.7032 19.4649L22.4992 8.14195C22.5044 8.06901 22.4847 7.99636 22.4427 7.93291C22.4007 7.86946 22.3381 7.81798 22.2627 7.7848Z" fill="#343436"/>
</svg>
