<svg width="16" height="17" viewBox="0 0 16 17" fill="none" xmlns="http://www.w3.org/2000/svg">
<path fill-rule="evenodd" clip-rule="evenodd" d="M16 8.5C16 4.08206 12.4179 0.5 8 0.5C3.58206 0.5 0 4.08206 0 8.5C0 12.4927 2.92507 15.8025 6.75012 16.4033V10.8131H4.71832V8.5H6.75012V6.73708C6.75012 4.73228 7.94488 3.62414 9.7719 3.62414C10.6471 3.62414 11.5629 3.78051 11.5629 3.78051V5.74932H10.5538C9.56041 5.74932 9.24988 6.36583 9.24988 6.9992V8.49994H11.4684L11.114 10.813H9.24981V16.4032C13.0749 15.8035 15.9999 12.4937 15.9999 8.49994L16 8.5Z" fill="#005CE1"/>
<path fill-rule="evenodd" clip-rule="evenodd" d="M11.1139 10.8129L11.4683 8.49982H9.24982V6.99908C9.24982 6.36683 9.55918 5.74921 10.5537 5.74921H11.5629V3.7804C11.5629 3.7804 10.6471 3.62402 9.77184 3.62402C7.94482 3.62402 6.75006 4.73106 6.75006 6.73697V8.49988H4.71826V10.8129H6.75006V16.4032C7.1573 16.4672 7.57468 16.4999 7.99994 16.4999C8.4252 16.4999 8.84259 16.4661 9.24982 16.4032V10.8129H11.114L11.1139 10.8129Z" fill="white"/>
</svg>
