<svg width="16" height="17" viewBox="0 0 16 17" fill="none" xmlns="http://www.w3.org/2000/svg">
<path fill-rule="evenodd" clip-rule="evenodd" d="M12.61 3.84996C11.4611 2.70105 9.60559 2.70105 8.45668 3.84996L7.42334 4.8833C7.2411 5.06554 7.2411 5.36102 7.42334 5.54326C7.60559 5.72551 7.90106 5.72551 8.08331 5.54326L9.11664 4.50993C9.90106 3.72551 11.1656 3.72551 11.95 4.50993C12.7344 5.29435 12.7344 6.55888 11.95 7.3433L10.35 8.9433C9.56559 9.72772 8.30106 9.72772 7.51664 8.9433C7.3344 8.76105 7.03892 8.76105 6.85667 8.9433C6.67443 9.12554 6.67443 9.42102 6.85667 9.60326C8.00559 10.7522 9.86106 10.7522 11.01 9.60326L12.61 8.00326C13.7589 6.85435 13.7589 4.99888 12.61 3.84996ZM9.1433 7.30993C7.99439 6.16101 6.13892 6.16101 4.99 7.30993L3.39 8.90993C2.24109 10.0588 2.24109 11.9143 3.39 13.0632C4.53892 14.2121 6.39439 14.2121 7.5433 13.0632L8.51664 12.0899C8.69888 11.9076 8.69888 11.6122 8.51664 11.4299C8.33439 11.2477 8.03892 11.2477 7.85667 11.4299L6.88334 12.4033C6.09891 13.1877 4.83439 13.1877 4.04997 12.4033C3.26555 11.6188 3.26555 10.3543 4.04997 9.56989L5.64997 7.96989C6.43439 7.18547 7.69892 7.18547 8.48334 7.96989C8.66558 8.15214 8.96106 8.15214 9.1433 7.96989C9.32555 7.78765 9.32555 7.49217 9.1433 7.30993Z" fill="#005CE1"/>
</svg>
