<svg width="57" height="52" viewBox="0 0 57 52" fill="none" xmlns="http://www.w3.org/2000/svg">
<path d="M51.8039 43.0824C47.7336 45.5338 41.4431 49.4654 38.1592 51.5468C37.2341 52.1481 36.0315 51.4543 36.0315 50.3905V35.0806L51.3876 39.7522C52.914 40.261 53.1915 42.2961 51.8039 43.0824Z" fill="url(#paint0_linear_3183_43339)"/>
<path d="M3.23774 41.0011H50.8788C51.7114 41.0011 52.3127 41.9262 51.9426 42.6662L51.4801 43.36C53.9778 41.9262 55.5042 39.2897 55.4579 36.422V34.5256L55.2729 8.76242C55.2729 7.0973 53.9778 5.70969 52.3127 5.57093L3.51526 1.1306C1.61887 0.991839 0 2.47195 0 4.36834V37.7633C0 39.521 1.43386 41.0011 3.23774 41.0011Z" fill="url(#paint1_linear_3183_43339)"/>
<path d="M9.06372 10.0345V15.8754H7.83104V10.0345H9.06372ZM10.9107 10.0345V10.9772H6.01294V10.0345H10.9107Z" fill="white"/>
<path d="M13.2685 10.0345V15.8754H12.0358V10.0345H13.2685Z" fill="white"/>
<path d="M18.7926 14.9367V15.8754H15.5975V14.9367H18.7926ZM16.0015 10.0345V15.8754H14.7647V10.0345H16.0015ZM18.3762 12.4134V13.328H15.5975V12.4134H18.3762ZM18.7884 10.0345V10.9772H15.5975V10.0345H18.7884ZM15.346 9.69755L16.5127 8.76686H17.1724L18.3432 9.69755H17.4692L16.8425 9.18005L16.2159 9.69755H15.346ZM18.0422 9.14796L18.7184 8.06885H19.6542L18.7184 9.14796H18.0422Z" fill="white"/>
<path d="M22.6181 10.0345V15.8754H21.3854V10.0345H22.6181ZM24.465 10.0345V10.9772H19.5673V10.0345H24.465Z" fill="white"/>
<path d="M28.9622 10.0345V15.8754H27.7254V10.0345H28.9622ZM32.5572 10.0345L30.1784 12.9188L28.8056 14.355L28.5829 13.2157L29.5105 11.9801L31.04 10.0345H32.5572ZM31.1514 15.8754L29.3827 13.1756L30.298 12.4294L32.6149 15.8754H31.1514Z" fill="white"/>
<path d="M34.746 10.0345V15.8754H33.5133V10.0345H34.746Z" fill="white"/>
<path d="M40.2701 14.9367V15.8754H37.075V14.9367H40.2701ZM37.479 10.0345V15.8754H36.2422V10.0345H37.479ZM39.8537 12.4134V13.328H37.075V12.4134H39.8537ZM40.2659 10.0345V10.9772H37.075V10.0345H40.2659ZM38.6705 8.45396L39.9155 9.56918V9.61732H38.9714L38.3242 9.03163L37.6851 9.61732H36.7575V9.55714L37.982 8.45396H38.6705ZM37.6686 16.778C37.6686 16.6229 37.7291 16.4932 37.85 16.3889C37.971 16.2872 38.1331 16.2364 38.3365 16.2364C38.5372 16.2364 38.6979 16.2872 38.8189 16.3889C38.9426 16.4932 39.0044 16.6229 39.0044 16.778C39.0044 16.9304 38.9426 17.0588 38.8189 17.1631C38.6979 17.2674 38.5372 17.3195 38.3365 17.3195C38.1331 17.3195 37.971 17.2674 37.85 17.1631C37.7291 17.0588 37.6686 16.9304 37.6686 16.778Z" fill="white"/>
<path d="M41.8941 10.0345H42.9412L44.4831 14.3229L46.025 10.0345H47.0721L44.9036 15.8754H44.0626L41.8941 10.0345ZM41.3293 10.0345H42.3723L42.5619 14.2146V15.8754H41.3293V10.0345ZM46.5939 10.0345H47.6411V15.8754H46.4043V14.2146L46.5939 10.0345Z" fill="white"/>
<path d="M13.1574 20.2032V36.6742H9.90608V23.9512L6 25.1931V22.6304L12.8074 20.2032H13.1574Z" fill="#FFF502"/>
<path d="M29.5719 27.0106V29.8555C29.5719 31.0898 29.4402 32.1548 29.1768 33.0504C28.9134 33.9385 28.5333 34.6685 28.0366 35.2405C27.5474 35.8049 26.9641 36.2226 26.2868 36.4936C25.6094 36.7645 24.8568 36.9 24.0289 36.9C23.3666 36.9 22.7495 36.8172 22.1775 36.6516C21.6055 36.4785 21.09 36.2114 20.6309 35.8501C20.1793 35.4888 19.7879 35.0335 19.4568 34.4841C19.1332 33.9272 18.8848 33.2649 18.7117 32.4972C18.5386 31.7295 18.452 30.849 18.452 29.8555V27.0106C18.452 25.7763 18.5837 24.7189 18.8472 23.8383C19.1181 22.9503 19.4982 22.224 19.9874 21.6595C20.4841 21.0951 21.0711 20.6811 21.7485 20.4177C22.4259 20.1468 23.1785 20.0113 24.0063 20.0113C24.6686 20.0113 25.282 20.0978 25.8465 20.2709C26.4185 20.4365 26.934 20.6962 27.3931 21.0499C27.8522 21.4036 28.2436 21.859 28.5672 22.4159C28.8908 22.9653 29.1392 23.6238 29.3123 24.3915C29.4854 25.1517 29.5719 26.0247 29.5719 27.0106ZM26.3094 30.2845V26.5703C26.3094 25.9758 26.2755 25.4565 26.2077 25.0124C26.1475 24.5684 26.0535 24.1921 25.9255 23.8835C25.7976 23.5674 25.6395 23.3115 25.4514 23.1158C25.2632 22.9202 25.0487 22.7772 24.8079 22.6868C24.567 22.5965 24.2999 22.5514 24.0063 22.5514C23.6376 22.5514 23.3102 22.6229 23.0242 22.7659C22.7457 22.9089 22.5086 23.1384 22.313 23.4545C22.1173 23.7631 21.9668 24.177 21.8614 24.6963C21.7635 25.2081 21.7146 25.8328 21.7146 26.5703V30.2845C21.7146 30.8791 21.7447 31.4021 21.8049 31.8537C21.8727 32.3053 21.9705 32.6929 22.0985 33.0165C22.2339 33.3326 22.392 33.5923 22.5726 33.7955C22.7608 33.9911 22.9753 34.1341 23.2161 34.2244C23.4645 34.3148 23.7354 34.3599 24.0289 34.3599C24.3902 34.3599 24.71 34.2884 24.9885 34.1454C25.2745 33.9949 25.5153 33.7616 25.711 33.4455C25.9142 33.1219 26.0648 32.7004 26.1626 32.1811C26.2604 31.6618 26.3094 31.0296 26.3094 30.2845Z" fill="#FFF502"/>
<path d="M31.7395 24.2673V23.3981C31.7395 22.7734 31.875 22.2052 32.1459 21.6934C32.4168 21.1816 32.8157 20.7714 33.3426 20.4629C33.8694 20.1543 34.5166 20 35.2843 20C36.0746 20 36.7331 20.1543 37.2599 20.4629C37.7943 20.7714 38.1932 21.1816 38.4566 21.6934C38.7275 22.2052 38.863 22.7734 38.863 23.3981V24.2673C38.863 24.877 38.7275 25.4377 38.4566 25.9494C38.1932 26.4612 37.798 26.8714 37.2712 27.18C36.7444 27.4885 36.0934 27.6428 35.3182 27.6428C34.5354 27.6428 33.8769 27.4885 33.3426 27.18C32.8157 26.8714 32.4168 26.4612 32.1459 25.9494C31.875 25.4377 31.7395 24.877 31.7395 24.2673ZM33.8957 23.3981V24.2673C33.8957 24.5308 33.9446 24.7829 34.0425 25.0237C34.1479 25.257 34.3059 25.4489 34.5166 25.5995C34.7349 25.7425 34.9983 25.814 35.3069 25.814C35.6305 25.814 35.8939 25.7425 36.0971 25.5995C36.3003 25.4489 36.4509 25.257 36.5487 25.0237C36.6465 24.7829 36.6955 24.5308 36.6955 24.2673V23.3981C36.6955 23.1196 36.6428 22.8637 36.5374 22.6304C36.4396 22.3896 36.2853 22.1976 36.0746 22.0546C35.8713 21.9041 35.6079 21.8289 35.2843 21.8289C34.9833 21.8289 34.7274 21.9041 34.5166 22.0546C34.3059 22.1976 34.1479 22.3896 34.0425 22.6304C33.9446 22.8637 33.8957 23.1196 33.8957 23.3981ZM39.5968 33.5132V32.644C39.5968 32.0268 39.7323 31.4623 40.0032 30.9506C40.2817 30.4388 40.6843 30.0286 41.2112 29.72C41.7455 29.4115 42.4003 29.2572 43.1755 29.2572C43.9582 29.2572 44.613 29.4115 45.1398 29.72C45.6666 30.0286 46.0655 30.4388 46.3365 30.9506C46.6074 31.4623 46.7429 32.0268 46.7429 32.644V33.5132C46.7429 34.1304 46.6074 34.6948 46.3365 35.2066C46.0731 35.7184 45.6779 36.1286 45.1511 36.4371C44.6243 36.7457 43.9733 36.9 43.1981 36.9C42.4153 36.9 41.7568 36.7457 41.2224 36.4371C40.6881 36.1286 40.2817 35.7184 40.0032 35.2066C39.7323 34.6948 39.5968 34.1304 39.5968 33.5132ZM41.7643 32.644V33.5132C41.7643 33.7842 41.8245 34.0401 41.945 34.2809C42.0654 34.5217 42.231 34.7136 42.4417 34.8566C42.6599 34.9996 42.9121 35.0711 43.1981 35.0711C43.5593 35.0711 43.8415 34.9996 44.0448 34.8566C44.248 34.7136 44.3872 34.5217 44.4625 34.2809C44.5452 34.0401 44.5866 33.7842 44.5866 33.5132V32.644C44.5866 32.373 44.534 32.1209 44.4286 31.8876C44.3232 31.6467 44.1652 31.4548 43.9544 31.3118C43.7512 31.1613 43.4916 31.086 43.1755 31.086C42.8594 31.086 42.596 31.1613 42.3852 31.3118C42.182 31.4548 42.0277 31.6467 41.9224 31.8876C41.817 32.1209 41.7643 32.373 41.7643 32.644ZM43.977 22.5852L35.9504 35.4324L34.3699 34.597L42.3965 21.7498L43.977 22.5852Z" fill="#FFF502"/>
<defs>
<linearGradient id="paint0_linear_3183_43339" x1="44.374" y1="60.5707" x2="44.374" y2="39.292" gradientUnits="userSpaceOnUse">
<stop offset="0.00649351" stop-color="#BA192D"/>
<stop offset="1" stop-color="#690E19"/>
</linearGradient>
<linearGradient id="paint1_linear_3183_43339" x1="27.7346" y1="5.375" x2="27.7346" y2="44.9901" gradientUnits="userSpaceOnUse">
<stop stop-color="#FF223E"/>
<stop offset="1" stop-color="#B5182C"/>
</linearGradient>
</defs>
</svg>
